<svg width="341" height="375" viewBox="0 0 341 375" fill="none" xmlns="http://www.w3.org/2000/svg">
<g opacity="0.6">
<path d="M16.2144 256.939C45.0569 300.598 81.3979 334.205 126.127 355.472C167.072 374.937 206.041 376.836 241.075 360.271C251.595 355.296 258.667 345.971 263.628 335.391L263.513 335.702L283.16 262.762V262.758C284.439 258.005 295.336 238.281 322.329 192.565C326.733 185.103 329.853 176.097 332.989 166.254C341.197 140.489 339.29 111.575 326.032 79.8345V79.8392C310.411 42.4384 278.465 20.3286 231.247 9.30849C188.691 -0.623062 142.35 0.961168 93.3612 23.687C57.3851 40.377 33.9914 71.0333 19.1786 109.37C-0.566223 160.477 -3.65751 229.748 18.5186 260.307C19.0597 261.053 18.9654 262.16 18.3013 262.771C17.6412 263.383 16.6654 263.276 16.1242 262.531C-7.20797 230.374 -3.52631 159.393 16.3415 107.966C31.4044 68.9812 55.3147 37.5513 92.1887 20.4444C141.809 -2.57324 188.781 -4.176 231.87 5.88062C279.589 17.0119 312.629 39.5525 328.832 78.343C342.361 110.732 344.444 140.624 335.9 167.444C332.768 177.274 329.541 186.654 324.904 194.511C297.685 240.602 287.227 259.673 286.12 263.781L266.477 336.725C266.449 336.832 266.408 336.934 266.362 337.036C261.193 348.065 253.657 358.113 242.268 363.5C206.324 380.496 166.474 378.453 124.93 358.701C79.6514 337.175 42.8798 303.155 13.734 259.038C13.2216 258.26 13.3651 257.166 14.0497 256.587C14.7344 256.008 15.702 256.166 16.2144 256.939Z" fill="#FF40AC"/>
<path d="M30.3514 335.217C46.0603 348.261 63.8374 344.619 77.7448 341.713C80.6297 341.111 83.3669 340.536 85.8455 340.18L85.7142 340.203L165.227 320.677C165.281 320.663 165.338 320.654 165.395 320.649L256.969 309.978L256.879 309.992C275.641 306.493 289.557 298.903 297.944 286.587C323.831 248.583 308.278 184.648 244.584 99.1256C197.191 35.4877 142.349 4.994 85.706 12.6672C46.6061 17.9635 24.3067 47.9753 19.5587 93.4819C18.2332 106.22 16.7928 118.976 15.3688 131.616C13.9654 144.048 12.5783 156.346 11.3185 168.43C3.39427 244.422 0.866402 309.612 30.8479 335.657C31.525 336.246 31.6522 337.348 31.1311 338.113C30.6099 338.882 29.6373 339.026 28.9602 338.437C-2.72843 310.904 0.410895 243.11 8.24072 168.018C9.50056 155.92 10.8917 143.599 12.2952 131.172C13.7191 118.531 15.1554 105.793 16.485 93.0742C21.3643 46.2655 44.5624 14.7107 85.3367 9.18741C143.342 1.33346 199.132 32.652 246.956 96.8737C310.481 182.169 327.914 248.337 300.403 288.723C291.346 302.022 276.552 309.871 257.384 313.448L257.289 313.462L165.711 324.133L165.884 324.101L86.3749 343.627C86.3297 343.636 86.2846 343.645 86.2395 343.65C83.8634 343.998 81.2166 344.549 78.3111 345.156C64.5556 348.029 45.4406 352.097 28.517 338.039C27.8276 337.469 27.6799 336.371 28.1887 335.592C28.6935 334.814 29.662 334.642 30.3514 335.217Z" fill="#FC40FF"/>
</g>
</svg>
