<svg width="482" height="375" viewBox="0 0 482 375" fill="none" xmlns="http://www.w3.org/2000/svg">
<g opacity="0.6">
<path d="M84.2144 256.939C113.057 300.598 149.398 334.205 194.127 355.472C235.072 374.937 274.041 376.836 309.075 360.271C319.595 355.296 326.667 345.971 331.628 335.391L331.513 335.702L351.16 262.762V262.758C352.439 258.005 363.336 238.281 390.329 192.565C394.733 185.103 397.853 176.097 400.989 166.254C409.197 140.489 407.29 111.575 394.032 79.8345V79.8392C378.411 42.4384 346.465 20.3286 299.247 9.30849C256.691 -0.623062 210.35 0.961168 161.361 23.687C125.385 40.377 101.991 71.0333 87.1786 109.37C67.4338 160.477 64.3425 229.748 86.5186 260.307C87.0597 261.053 86.9654 262.16 86.3013 262.771C85.6412 263.383 84.6654 263.276 84.1242 262.531C60.792 230.374 64.4737 159.393 84.3415 107.966C99.4044 68.9812 123.315 37.5513 160.189 20.4444C209.809 -2.57324 256.781 -4.176 299.87 5.88062C347.589 17.0119 380.629 39.5525 396.832 78.343C410.361 110.732 412.444 140.624 403.9 167.444C400.768 177.274 397.541 186.654 392.904 194.511C365.685 240.602 355.227 259.673 354.12 263.781L334.477 336.725C334.449 336.832 334.408 336.934 334.362 337.036C329.193 348.065 321.657 358.113 310.268 363.5C274.324 380.496 234.474 378.453 192.93 358.701C147.651 337.175 110.88 303.155 81.734 259.038C81.2216 258.26 81.3651 257.166 82.0497 256.587C82.7344 256.008 83.702 256.166 84.2144 256.939Z" fill="#FF40AC"/>
<path d="M98.3514 335.217C114.06 348.261 131.837 344.619 145.745 341.713C148.63 341.111 151.367 340.536 153.846 340.18L153.714 340.203L233.227 320.677C233.281 320.663 233.338 320.654 233.395 320.649L324.969 309.978L324.879 309.992C343.641 306.493 357.557 298.903 365.944 286.587C391.831 248.583 376.278 184.648 312.584 99.1256C265.191 35.4877 210.349 4.994 153.706 12.6672C114.606 17.9635 92.3067 47.9753 87.5587 93.4819C86.2332 106.22 84.7928 118.976 83.3688 131.616C81.9654 144.048 80.5783 156.346 79.3185 168.43C71.3943 244.422 68.8664 309.612 98.8479 335.657C99.525 336.246 99.6522 337.348 99.1311 338.113C98.6099 338.882 97.6373 339.026 96.9602 338.437C65.2716 310.904 68.4109 243.11 76.2407 168.018C77.5006 155.92 78.8917 143.599 80.2952 131.172C81.7191 118.531 83.1554 105.793 84.485 93.0742C89.3643 46.2655 112.562 14.7107 153.337 9.18741C211.342 1.33346 267.132 32.652 314.956 96.8737C378.481 182.169 395.914 248.337 368.403 288.723C359.346 302.022 344.552 309.871 325.384 313.448L325.289 313.462L233.711 324.133L233.884 324.101L154.375 343.627C154.33 343.636 154.285 343.645 154.239 343.65C151.863 343.998 149.217 344.549 146.311 345.156C132.556 348.029 113.441 352.097 96.517 338.039C95.8276 337.469 95.6799 336.371 96.1887 335.592C96.6935 334.814 97.662 334.642 98.3514 335.217Z" fill="#FC40FF"/>
</g>
<path d="M51.3288 125.48C52.0328 125.48 52.6088 125.256 53.0568 124.808C53.5048 124.36 53.7288 123.784 53.7288 123.08V109.16H65.2488V125.192C65.2488 129.032 64.0648 131.976 61.6968 134.024C59.3928 136.008 56.5128 137 53.0568 137H40.0008C36.5448 137 33.6328 136.008 31.2648 134.024C28.9608 131.976 27.8088 129.032 27.8088 125.192V72.008C27.8088 68.168 28.9608 65.256 31.2648 63.272C33.6328 61.224 36.5448 60.2 40.0008 60.2H53.0568C56.5128 60.2 59.3928 61.224 61.6968 63.272C64.0648 65.256 65.2488 68.168 65.2488 72.008V91.88H53.7288V74.12C53.7288 73.48 53.5048 72.936 53.0568 72.488C52.6088 71.976 52.0328 71.72 51.3288 71.72H41.7288C41.0248 71.72 40.4488 71.976 40.0008 72.488C39.5528 72.936 39.3288 73.48 39.3288 74.12V123.08C39.3288 123.784 39.5528 124.36 40.0008 124.808C40.4488 125.256 41.0248 125.48 41.7288 125.48H51.3288ZM74.7775 72.008C74.7775 68.168 75.9295 65.256 78.2335 63.272C80.6015 61.224 83.5135 60.2 86.9695 60.2H100.026C103.482 60.2 106.362 61.224 108.666 63.272C111.034 65.256 112.218 68.168 112.218 72.008V125.192C112.218 129.032 111.034 131.976 108.666 134.024C106.362 136.008 103.482 137 100.026 137H86.9695C83.5135 137 80.6015 136.008 78.2335 134.024C75.9295 131.976 74.7775 129.032 74.7775 125.192V72.008ZM98.2975 125.48C99.0015 125.48 99.5775 125.256 100.026 124.808C100.474 124.36 100.698 123.784 100.698 123.08V74.12C100.698 73.48 100.474 72.936 100.026 72.488C99.5775 71.976 99.0015 71.72 98.2975 71.72H88.6975C87.9935 71.72 87.4175 71.976 86.9695 72.488C86.5215 72.936 86.2975 73.48 86.2975 74.12V123.08C86.2975 123.784 86.5215 124.36 86.9695 124.808C87.4175 125.256 87.9935 125.48 88.6975 125.48H98.2975ZM155.487 60.2H167.007V137H145.887L133.023 71.72H132.255V137H120.831V60.2H141.951L154.719 125.48H155.487V60.2ZM187.653 71.72H176.133V60.2H210.693V71.72H199.173V137H187.653V71.72ZM224.865 120.68L222.657 137H211.233L222.369 60.2H241.569L252.705 137H241.281L239.073 120.68H224.865ZM231.585 71.72L226.497 109.16H237.441L232.353 71.72H231.585ZM281.954 125.48C282.658 125.48 283.234 125.256 283.682 124.808C284.13 124.36 284.354 123.784 284.354 123.08V109.16H295.874V125.192C295.874 129.032 294.69 131.976 292.322 134.024C290.018 136.008 287.138 137 283.682 137H270.626C267.17 137 264.258 136.008 261.89 134.024C259.586 131.976 258.434 129.032 258.434 125.192V72.008C258.434 68.168 259.586 65.256 261.89 63.272C264.258 61.224 267.17 60.2 270.626 60.2H283.682C287.138 60.2 290.018 61.224 292.322 63.272C294.69 65.256 295.874 68.168 295.874 72.008V91.88H284.354V74.12C284.354 73.48 284.13 72.936 283.682 72.488C283.234 71.976 282.658 71.72 281.954 71.72H272.354C271.65 71.72 271.074 71.976 270.626 72.488C270.178 72.936 269.954 73.48 269.954 74.12V123.08C269.954 123.784 270.178 124.36 270.626 124.808C271.074 125.256 271.65 125.48 272.354 125.48H281.954ZM315.528 71.72H304.008V60.2H338.568V71.72H327.048V137H315.528V71.72ZM371.684 60.2H383.204V123.08C383.204 123.784 383.428 124.36 383.876 124.808C384.324 125.256 384.9 125.48 385.604 125.48H395.204C395.908 125.48 396.484 125.256 396.932 124.808C397.38 124.36 397.604 123.784 397.604 123.08V60.2H409.124V125.192C409.124 129.032 407.94 131.976 405.572 134.024C403.268 136.008 400.388 137 396.932 137H383.876C380.42 137 377.508 136.008 375.14 134.024C372.836 131.976 371.684 129.032 371.684 125.192V60.2ZM442.026 96.68C444.33 97.448 446.25 98.248 447.786 99.08C449.386 99.848 450.634 100.712 451.53 101.672C452.49 102.568 453.162 103.56 453.546 104.648C453.994 105.736 454.218 107.016 454.218 108.488V125.192C454.218 129.032 453.034 131.976 450.666 134.024C448.362 136.008 445.482 137 442.026 137H428.97C425.514 137 422.602 136.008 420.234 134.024C417.93 131.976 416.778 129.032 416.778 125.192V109.16H428.298V123.08C428.298 123.72 428.522 124.296 428.97 124.808C429.418 125.256 429.994 125.48 430.698 125.48H440.298C441.002 125.48 441.578 125.256 442.026 124.808C442.474 124.296 442.698 123.72 442.698 123.08V110.6C442.698 109.384 441.93 108.552 440.394 108.104L428.874 104.264C424.394 102.792 421.258 101.16 419.466 99.368C417.674 97.576 416.778 95.272 416.778 92.456V72.008C416.778 68.168 417.93 65.256 420.234 63.272C422.602 61.224 425.514 60.2 428.97 60.2H442.026C445.482 60.2 448.362 61.224 450.666 63.272C453.034 65.256 454.218 68.168 454.218 72.008V91.976H442.698V74.12C442.698 73.48 442.474 72.936 442.026 72.488C441.578 71.976 441.002 71.72 440.298 71.72H430.698C429.994 71.72 429.418 71.976 428.97 72.488C428.522 72.936 428.298 73.48 428.298 74.12V90.152C428.298 91.304 429.066 92.168 430.602 92.744L442.026 96.68Z" fill="white"/>
</svg>
